<svg xmlns="http://www.w3.org/2000/svg" width="18.5" height="18.5" viewBox="0 0 18.5 18.5"><g transform="translate(341 -232)"><g transform="translate(-341 232)"><g transform="translate(0 0)"><path d="M31.826,27.6a.6.6,0,0,1-.6.6H28.508a.3.3,0,0,0-.3.3v2.715a.6.6,0,1,1-1.207,0V27.6a.6.6,0,0,1,.6-.6h3.62a.6.6,0,0,1,.6.6ZM44.9,31.826a.6.6,0,0,1-.6-.6V28.508a.3.3,0,0,0-.3-.3H41.277a.6.6,0,0,1-.6-.6h0a.6.6,0,0,1,.6-.6H44.9a.6.6,0,0,1,.6.6h0v3.62A.6.6,0,0,1,44.9,31.826ZM28.207,43.992a.3.3,0,0,0,.3.3h2.715a.6.6,0,1,1,0,1.207H27.6a.6.6,0,0,1-.6-.6v-3.62a.6.6,0,0,1,.6-.6h0a.6.6,0,0,1,.6.6Zm15.785.3a.3.3,0,0,0,.3-.3V41.277a.6.6,0,1,1,1.207,0V44.9a.6.6,0,0,1-.6.6h-3.62a.6.6,0,1,1,0-1.207Z" transform="translate(-27 -27)" fill="#2b2d30"/></g></g></g></svg>