<svg xmlns="http://www.w3.org/2000/svg" width="26" height="26" viewBox="0 0 26 26"><g transform="translate(-1238 -1464)"><rect width="26" height="26" rx="3" transform="translate(1238 1464)" fill="#fec100"/><g transform="translate(1240.304 1466.304)"><rect width="21.392" height="21.392" transform="translate(0 0)" fill="#00a561"/><path d="M307.446,709.416v-1.38h6.621v1.38Z" transform="translate(-295.269 -688.049)" fill="#f3f5f4"/><path d="M279.47,601.819a2.012,2.012,0,1,1-2.007,2.017A2.06,2.06,0,0,1,279.47,601.819Z" transform="translate(-268.779 -596.029)" fill="#f3f5f4"/><path d="M236.276,644.091c-.982.749-.913,1.809-.851,2.868-1.126,0-2.252-.009-3.377.017-.494.011-.674-.169-.677-.668a1.955,1.955,0,0,1,1.346-2.059A4.561,4.561,0,0,1,236.276,644.091Z" transform="translate(-228.5 -632.445)" fill="#01bb88"/><path d="M318.288,646.931c.061-1.058.131-2.119-.851-2.867a4.43,4.43,0,0,1,3.554.169,2.049,2.049,0,0,1,1,.774,4.044,4.044,0,0,1,.249,1.7,2.539,2.539,0,0,1-1.074.225C320.205,646.96,319.246,646.935,318.288,646.931Z" transform="translate(-303.821 -632.417)" fill="#01bb88"/><path d="M245.044,615.833a1.578,1.578,0,1,1-1.568,1.552A1.58,1.58,0,0,1,245.044,615.833Z" transform="translate(-239.245 -608.168)" fill="#00bb87"/><path d="M320.634,617.415a1.578,1.578,0,1,1-1.534-1.586A1.578,1.578,0,0,1,320.634,617.415Z" transform="translate(-303.474 -608.163)" fill="#00bb87"/><path d="M260.189,638.962a6.667,6.667,0,0,1,7.489,0c.982.748.912,1.809.851,2.867h-9.192C259.276,640.771,259.208,639.71,260.189,638.962Z" transform="translate(-253.238 -627.287)" fill="#f3f5f4"/></g></g></svg>