<svg xmlns="http://www.w3.org/2000/svg" width="48.5" height="48.5" viewBox="0 0 48.5 48.5"><path d="M48.5,45.469A3.032,3.032,0,0,1,45.469,48.5H3.031A3.032,3.032,0,0,1,0,45.469V3.031A3.032,3.032,0,0,1,3.031,0H45.469A3.032,3.032,0,0,1,48.5,3.031Z" fill="#55acee"/><path d="M36.293,10.871a12.545,12.545,0,0,1-3.572.962,6.127,6.127,0,0,0,2.737-3.381,12.609,12.609,0,0,1-3.948,1.482A6.253,6.253,0,0,0,26.973,8a6.165,6.165,0,0,0-6.214,6.12,6.28,6.28,0,0,0,.158,1.4,17.769,17.769,0,0,1-12.81-6.4,6.041,6.041,0,0,0-.843,3.08,6.1,6.1,0,0,0,2.765,5.092,6.267,6.267,0,0,1-2.813-.767c0,.026,0,.052,0,.079a6.152,6.152,0,0,0,4.986,6,6.446,6.446,0,0,1-1.638.215A6.168,6.168,0,0,1,9.4,22.712a6.207,6.207,0,0,0,5.8,4.251A12.717,12.717,0,0,1,6,29.5a17.8,17.8,0,0,0,9.529,2.748A17.422,17.422,0,0,0,33.21,14.829c0-.262-.008-.53-.018-.79A12.6,12.6,0,0,0,36.293,10.871Z" transform="translate(3.094 4.125)" fill="#fff"/></svg>