<svg xmlns="http://www.w3.org/2000/svg" viewBox="0 0 112 112"><defs><style>.a{fill:#d6dadf;}.b{fill:#639b00;}</style></defs><rect class="a" width="112" height="112"/><path class="b" d="M56,96.1c-11.81,0-22.91-3.61-31.27-10.17a4.41,4.41,0,0,1-.87-6.05C30.94,70,43,64.06,56,64.06S81.06,70,88.14,79.88a4.41,4.41,0,0,1-.87,6.05C78.91,92.49,67.81,96.1,56,96.1Zm0-28c-11.76,0-22.56,5.29-28.89,14.14a.44.44,0,0,0,.09.59c7.66,6,17.88,9.31,28.8,9.31s21.14-3.31,28.8-9.31a.44.44,0,0,0,.09-.59C78.56,73.35,67.76,68.06,56,68.06Z" transform="translate(0 0)"/><path class="b" d="M57,61.7H55A18.7,18.7,0,0,1,36.32,43V38.74A18.7,18.7,0,0,1,55,20.06h2A18.7,18.7,0,0,1,75.68,38.74V43A18.7,18.7,0,0,1,57,61.7ZM55,24.06A14.7,14.7,0,0,0,40.32,38.74V43A14.69,14.69,0,0,0,55,57.7h2A14.69,14.69,0,0,0,71.68,43V38.74A14.7,14.7,0,0,0,57,24.06Z" transform="translate(0 0)"/></svg>