<svg xmlns="http://www.w3.org/2000/svg" width="26.112" height="24.25" viewBox="0 0 26.112 24.25"><g transform="translate(-245.433 -246.141)"><g transform="translate(245.433 246.141)"><path d="M40.453,38.97h-3.9V34.508a.486.486,0,0,0-.47-.508H24.024a.486.486,0,0,0-.47.508V38.97h-3.9A2.671,2.671,0,0,0,17,41.657V50.7a2.671,2.671,0,0,0,2.654,2.687h2.807v4.353a.486.486,0,0,0,.47.508h14.25a.486.486,0,0,0,.47-.508V53.389h2.807A2.668,2.668,0,0,0,43.112,50.7V41.657A2.68,2.68,0,0,0,40.453,38.97ZM24.537,34.983H35.57V38.97H24.537ZM36.662,57.267H23.445V48.528H36.662v8.739ZM42.124,50.7a1.685,1.685,0,0,1-1.671,1.7H37.645V48.037a.471.471,0,0,0-.47-.492H22.931a.471.471,0,0,0-.47.492v4.369H19.654a1.685,1.685,0,0,1-1.671-1.7V41.657a1.685,1.685,0,0,1,1.671-1.7H40.447a1.685,1.685,0,0,1,1.671,1.7V50.7Z" transform="translate(-17 -34)" fill="#2b2d30"/><path d="M307.149,189h-5.058a.492.492,0,1,0,0,.983h5.058a.492.492,0,1,0,0-.983Z" transform="translate(-286.056 -180.534)" fill="#2b2d30"/><path d="M177.092,332.983h2.234a.492.492,0,1,0,0-.983h-2.234a.492.492,0,1,0,0,.983Z" transform="translate(-167.883 -315.724)" fill="#2b2d30"/><path d="M184.235,372h-7.144a.492.492,0,1,0,0,.983h7.149a.492.492,0,1,0-.005-.983Z" transform="translate(-167.883 -353.539)" fill="#2b2d30"/><path d="M184.235,412h-7.144a.492.492,0,1,0,0,.983h7.149a.492.492,0,1,0-.005-.983Z" transform="translate(-167.883 -391.355)" fill="#2b2d30"/></g></g></svg>